<?xml version="1.0" standalone="no"?>
<!DOCTYPE svg PUBLIC "-//W3C//DTD SVG 20010904//EN"
 "http://www.w3.org/TR/2001/REC-SVG-20010904/DTD/svg10.dtd">
<svg version="1.0" xmlns="http://www.w3.org/2000/svg"
 width="1000.000000pt" height="1080.000000pt" viewBox="0 0 1000.000000 1080.000000"
 preserveAspectRatio="xMidYMid meet">

<g transform="translate(0.000000,1080.000000) scale(0.100000,-0.100000)"
fill="#000000" stroke="none">
<path d="M6818 8619 c-25 -14 -440 -541 -932 -1183 -163 -212 -206 -273 -206
-288 0 -21 71 -5 126 29 141 86 226 133 244 133 12 0 29 -17 46 -45 17 -29 33
-45 46 -45 10 0 60 36 110 80 50 44 102 83 115 86 34 9 65 -23 109 -112 41
-84 77 -124 110 -124 14 0 66 37 141 100 65 55 125 100 134 100 18 0 58 -41
123 -127 26 -35 54 -63 63 -63 9 0 39 17 67 39 85 64 186 131 200 131 7 0 42
-30 77 -67 171 -180 154 -166 188 -149 16 9 56 41 89 71 48 44 66 55 94 55 28
0 145 -44 510 -193 35 -14 43 -6 25 30 -19 35 -352 407 -631 702 -357 379
-423 451 -549 600 -67 79 -131 154 -142 167 -34 40 -97 84 -119 84 -11 0 -29
-5 -38 -11z m84 -35 c20 -14 88 -88 151 -163 62 -75 161 -189 220 -253 59 -64
107 -120 107 -123 0 -3 -38 14 -84 39 -45 26 -86 46 -90 46 -3 0 -6 -31 -6
-70 0 -38 -3 -70 -7 -70 -5 1 -34 35 -67 77 -42 55 -61 72 -66 62 -5 -8 -16
-54 -25 -104 -25 -134 -25 -135 -33 -135 -4 0 -27 36 -51 80 -24 44 -47 80
-51 80 -4 0 -40 -43 -79 -95 -39 -52 -74 -95 -77 -95 -2 0 -2 53 2 117 l7 117
-68 -84 c-137 -171 -270 -320 -273 -306 -3 16 104 270 153 364 18 34 31 62 28
62 -7 0 -106 -65 -193 -128 -47 -34 -88 -62 -92 -62 -7 0 180 242 419 542 114
143 115 143 175 102z"/>
<path d="M5963 8419 c-18 -11 -72 -69 -121 -127 -98 -119 -171 -198 -401 -442
-266 -281 -471 -513 -471 -532 0 -13 6 -11 195 67 88 36 172 67 187 67 19 1
42 -13 78 -45 29 -26 60 -47 70 -47 9 0 51 36 93 81 85 91 75 90 172 19 28
-20 55 -39 62 -43 7 -5 35 23 74 75 35 46 116 151 181 235 65 83 118 157 118
163 0 10 -47 71 -114 147 -8 9 -10 -11 -8 -70 3 -92 7 -92 -67 7 l-43 58 -35
-62 c-19 -34 -37 -60 -39 -57 -2 2 -11 43 -20 90 -9 48 -19 87 -23 87 -3 0
-24 -25 -46 -55 -22 -30 -43 -54 -47 -55 -5 0 -8 23 -8 51 0 28 -3 49 -7 47
-5 -2 -32 -16 -60 -31 -29 -15 -53 -24 -53 -21 0 4 26 34 58 68 32 34 104 117
160 184 57 67 116 129 131 136 27 14 29 14 63 -22 19 -20 90 -108 158 -195 68
-86 125 -155 128 -153 5 6 -11 27 -179 237 -97 121 -135 161 -152 159 -1 0
-16 -10 -34 -21z"/>
<path d="M7566 8367 c-69 -71 -209 -237 -199 -237 4 0 37 35 73 77 94 111 162
183 183 194 14 8 24 4 45 -19 29 -31 302 -377 317 -401 10 -18 4 -14 -99 58
-44 30 -77 49 -74 41 4 -8 32 -71 63 -139 56 -125 63 -157 22 -109 -12 14 -60
72 -106 127 -46 56 -85 101 -87 101 -1 0 0 -31 3 -70 3 -39 2 -70 -3 -69 -5 0
-28 27 -52 60 -23 33 -46 58 -50 55 -4 -2 -18 -25 -31 -49 l-25 -46 44 -48
c24 -26 103 -110 174 -185 l130 -137 23 25 c28 30 37 26 116 -46 30 -27 60
-50 66 -50 6 0 17 14 26 30 9 17 24 30 34 30 10 0 59 -25 109 -55 91 -55 122
-66 122 -43 0 13 -121 175 -349 468 -350 450 -384 490 -410 490 -8 0 -37 -24
-65 -53z"/>
<path d="M4090 8399 c-25 -5 -78 -25 -119 -45 -219 -108 -340 -372 -287 -624
61 -288 322 -476 595 -430 304 51 502 378 421 694 -27 106 -74 190 -146 262
-123 123 -294 176 -464 143z"/>
<path d="M7471 8069 l-23 -31 38 -39 c21 -21 39 -38 40 -36 4 4 -18 111 -25
125 -5 9 -14 3 -30 -19z"/>
<path d="M6190 8075 c0 -3 14 -33 31 -67 l31 -61 23 29 c13 16 21 32 19 36 -6
9 -104 69 -104 63z"/>
<path d="M2724 7429 c-77 -22 -209 -211 -398 -572 -43 -81 -86 -152 -96 -157
-10 -6 -42 -10 -71 -10 -46 0 -55 -4 -83 -34 -42 -45 -242 -446 -261 -522 -35
-145 -13 -248 74 -334 70 -69 132 -101 351 -183 204 -76 272 -92 355 -83 116
12 196 71 246 182 36 80 441 1409 445 1464 6 67 -15 114 -65 148 -43 28 -168
67 -301 92 -108 21 -148 23 -196 9z"/>
<path d="M3639 7316 c-69 -20 -147 -66 -181 -106 -68 -81 -131 -262 -287 -825
-38 -137 -92 -324 -119 -415 -28 -91 -57 -203 -66 -249 -21 -108 -21 -252 0
-322 55 -185 257 -446 629 -814 322 -319 331 -336 328 -665 -1 -203 -6 -270
-49 -633 -14 -118 -16 -164 -8 -230 18 -142 75 -237 176 -293 46 -25 63 -29
128 -29 140 1 232 75 284 227 29 88 36 173 57 738 26 699 26 703 -29 812 -23
46 -65 115 -94 153 -527 693 -578 763 -578 794 0 8 45 189 100 402 55 214 100
395 100 403 0 9 -64 95 -141 193 -78 98 -146 183 -151 189 -5 7 -3 16 6 23 13
11 63 -47 309 -356 161 -202 310 -382 330 -400 20 -18 54 -37 74 -42 21 -5
193 -13 383 -16 390 -8 459 -1 535 54 85 62 118 200 67 283 -55 88 -145 107
-418 88 -213 -14 -259 -9 -360 39 -70 34 -145 108 -206 206 -24 39 -116 196
-204 349 -225 394 -280 447 -474 452 -58 2 -113 -2 -141 -10z"/>
<path d="M5281 6921 c-10 -17 -85 -581 -79 -586 2 -1 23 -5 48 -7 l46 -5 36
286 c31 251 34 289 22 309 -18 27 -59 29 -73 3z"/>
<path d="M5178 5812 c-29 -2 -48 -8 -48 -15 0 -7 -86 -700 -191 -1541 l-192
-1529 22 -18 c28 -23 63 -12 74 22 9 27 389 3069 385 3078 -2 3 -24 5 -50 3z"/>
<path d="M2907 5277 c-15 -78 -43 -207 -62 -287 -18 -80 -45 -212 -60 -295
-54 -313 -86 -394 -248 -641 -135 -207 -337 -543 -395 -658 -55 -109 -67 -203
-37 -283 55 -144 220 -213 353 -147 82 41 147 122 292 365 184 307 229 378
367 576 198 283 206 299 268 545 30 117 55 221 55 232 0 10 -30 50 -66 90
-218 234 -374 454 -423 598 l-16 46 -28 -141z"/>
<path d="M0 400 l0 -400 5000 0 5000 0 0 400 0 400 -5000 0 -5000 0 0 -400z
m2192 123 c23 -20 23 -57 1 -74 -15 -11 -16 -11 -5 1 27 31 11 72 -33 83 -19
4 -19 5 -1 6 11 0 28 -6 38 -16z m-69 -8 c-3 -9 -8 -14 -10 -11 -3 3 -2 9 2
15 9 16 15 13 8 -4z m-1760 -114 c22 -61 43 -108 47 -104 4 4 24 56 45 116 21
59 42 107 47 107 11 0 9 -5 -42 -149 -23 -64 -44 -107 -53 -109 -15 -3 -17 0
-67 143 -15 44 -31 88 -36 99 -5 13 -3 17 6 14 8 -2 32 -55 53 -117z m517 89
c0 -23 4 -30 20 -30 11 0 20 -4 20 -10 0 -5 -10 -10 -21 -10 -20 0 -21 -4 -17
-71 3 -55 8 -74 23 -85 23 -17 14 -29 -13 -15 -11 6 -22 25 -26 42 -10 51 -7
209 4 209 6 0 10 -13 10 -30z m515 16 c25 -11 33 -19 29 -30 -7 -19 -5 -19
-40 -1 -36 18 -55 19 -78 2 -28 -21 -9 -45 49 -62 87 -25 108 -74 54 -127 -29
-29 -33 -30 -90 -25 -68 6 -72 8 -64 29 5 13 12 14 40 5 50 -15 100 1 100 33
0 16 -8 28 -25 36 -87 40 -105 51 -108 67 -14 70 53 106 133 73z m105 -16 c0
-25 4 -30 25 -30 16 0 25 -6 25 -15 0 -9 -9 -15 -25 -15 -24 0 -25 -3 -25 -60
0 -55 2 -62 25 -72 14 -6 25 -15 25 -20 0 -18 -31 -20 -55 -4 -24 16 -25 20
-25 131 0 96 3 115 15 115 10 0 15 -10 15 -30z m482 -32 l3 -62 36 32 c20 18
45 32 55 32 14 0 9 -9 -21 -40 l-39 -40 42 -60 c40 -57 41 -60 20 -60 -16 0
-32 14 -53 45 -16 25 -33 45 -37 45 -5 0 -8 -20 -8 -45 0 -38 -3 -45 -20 -45
-19 0 -20 7 -20 130 0 122 1 130 20 130 16 0 19 -8 22 -62z m193 30 c1 -20 -2
-24 -11 -17 -8 7 -14 6 -17 -3 -3 -7 -6 2 -6 20 -1 27 3 33 17 30 11 -2 17
-13 17 -30z m-44 -35 c13 -16 12 -17 -3 -4 -17 13 -22 21 -14 21 2 0 10 -8 17
-17z m-1502 -19 c12 -15 21 -40 21 -55 0 -29 0 -29 -65 -29 -72 0 -83 -12 -44
-51 17 -17 30 -20 65 -16 43 4 59 -5 28 -17 -45 -17 -106 3 -123 41 -45 98 56
206 118 127z m191 16 c17 -11 10 -13 -40 -10 -47 2 -75 -28 -75 -80 0 -55 26
-80 82 -80 27 0 42 -4 38 -10 -9 -15 -78 -12 -102 5 -50 35 -50 135 0 170 24
17 74 20 97 5z m265 -13 c20 -16 28 -35 32 -69 5 -42 3 -50 -25 -78 -41 -41
-83 -41 -124 0 -28 28 -30 36 -25 78 9 82 84 119 142 69z m85 7 c0 -14 2 -14
22 0 24 17 38 20 38 9 0 -5 -14 -16 -30 -25 -29 -17 -30 -19 -30 -93 0 -43 -4
-75 -10 -75 -6 0 -10 40 -10 100 0 60 4 100 10 100 6 0 10 -7 10 -16z m537 1
c30 -21 44 -75 32 -120 -25 -88 -143 -88 -168 0 -20 72 20 135 84 135 17 0 40
-7 52 -15z m198 -5 c0 -10 -8 -14 -27 -12 -58 6 -91 -42 -67 -100 11 -28 36
-40 74 -35 12 1 20 -4 20 -13 0 -19 -48 -25 -85 -10 -63 26 -68 148 -6 179 31
15 91 9 91 -9z m5484 -83 c8 -26 17 -47 21 -47 4 0 13 21 21 47 8 25 20 48 26
50 13 5 -22 -113 -38 -131 -12 -14 -18 -5 -45 69 -16 44 -20 65 -12 63 7 -3
19 -26 27 -51z m638 38 c2 -6 -9 -11 -23 -10 -39 0 -42 -23 -5 -36 34 -12 49
-43 31 -64 -13 -16 -38 -19 -64 -9 -27 10 -18 22 17 20 38 -1 43 19 8 37 -36
18 -48 42 -31 62 14 17 61 17 67 0z m333 -20 c0 -35 16 -47 26 -20 4 8 13 15
22 15 13 0 13 -3 -2 -19 -16 -18 -16 -21 -1 -50 9 -18 11 -31 5 -31 -6 0 -16
11 -22 25 -6 14 -15 25 -20 25 -4 0 -8 -11 -8 -25 0 -14 -4 -25 -10 -25 -6 0
-10 30 -10 70 0 40 4 70 10 70 6 0 10 -16 10 -35z m580 32 c0 -4 -34 -104 -45
-136 -3 -8 -8 -11 -11 -8 -8 7 38 147 48 147 4 0 8 -2 8 -3z m92 -14 c39 -35
8 -122 -44 -123 -10 0 -18 5 -18 10 0 6 9 10 20 10 10 0 24 10 31 22 10 18 9
20 -6 15 -24 -10 -55 10 -55 36 0 44 38 61 72 30z m120 -35 c2 -29 2 -61 0
-70 -5 -22 -22 -24 -22 -3 0 10 -10 15 -30 15 -16 0 -30 3 -30 6 0 16 56 104
67 104 6 0 13 -22 15 -52z m115 40 c14 -23 12 -106 -2 -118 -35 -29 -91 12
-68 50 7 10 10 26 7 35 -13 33 44 62 63 33z m123 2 c0 -5 -11 -10 -25 -10 -32
0 -32 -16 -1 -24 27 -7 41 -35 31 -65 -7 -23 -37 -35 -65 -26 -31 10 -24 23
13 21 28 -1 32 2 32 24 0 21 -4 25 -30 24 -29 -1 -30 0 -27 32 4 31 7 34 38
34 19 0 34 -4 34 -10z m102 -7 c39 -35 8 -122 -44 -123 -10 0 -18 5 -18 10 0
6 9 10 20 10 10 0 24 10 31 22 10 18 9 20 -6 15 -24 -10 -55 10 -55 36 0 44
38 61 72 30z m88 -43 c0 -33 4 -60 10 -60 6 0 10 -4 10 -10 0 -5 -13 -10 -30
-10 -16 0 -30 5 -30 10 0 6 5 10 10 10 6 0 10 20 10 45 0 38 -2 43 -17 38 -16
-6 -16 -4 1 15 29 34 36 27 36 -38z m120 50 c0 -5 -11 -10 -25 -10 -32 0 -32
-16 -1 -24 27 -7 41 -35 31 -65 -7 -23 -37 -35 -65 -26 -31 10 -24 23 13 21
28 -1 32 2 32 24 0 21 -4 25 -30 24 -29 -1 -30 0 -27 32 4 31 7 34 38 34 19 0
34 -4 34 -10z m-1970 -35 c9 -10 9 -15 1 -15 -15 0 -14 -57 2 -63 6 -2 9 -8 4
-13 -19 -20 -43 38 -38 94 1 16 16 15 31 -3z m360 0 c9 -10 9 -15 1 -15 -15 0
-14 -57 2 -63 6 -2 9 -7 6 -11 -15 -17 -37 8 -41 47 -7 58 5 74 32 42z m-532
-7 c23 -23 13 -38 -24 -38 -46 0 -41 -23 7 -30 27 -4 30 -7 16 -13 -28 -11
-44 -9 -61 9 -32 31 -14 84 29 84 12 0 26 -5 33 -12z m117 3 c3 -5 -9 -11 -27
-13 -28 -2 -33 -7 -33 -28 0 -21 5 -26 33 -28 36 -4 34 -22 -3 -22 -28 0 -55
24 -55 50 0 37 67 69 85 41z m169 -7 c21 -20 20 -43 -1 -66 -20 -22 -46 -23
-67 -2 -31 30 -9 84 34 84 10 0 26 -7 34 -16z m86 6 c0 -4 -7 -10 -15 -14 -9
-3 -15 -19 -15 -41 0 -19 -4 -35 -10 -35 -5 0 -10 22 -10 49 0 45 2 49 25 49
14 0 25 -4 25 -8z m274 -6 c21 -20 20 -43 -1 -66 -20 -22 -46 -23 -67 -2 -31
30 -9 84 34 84 10 0 26 -7 34 -16z m113 9 c14 -6 10 -9 -17 -13 -29 -4 -35 -9
-35 -30 0 -21 5 -26 33 -28 36 -4 34 -22 -3 -22 -28 0 -55 24 -55 50 0 22 25
50 45 50 7 0 22 -3 32 -7z m250 0 c14 -6 10 -9 -17 -13 -29 -4 -35 -9 -35 -30
0 -21 5 -26 33 -28 36 -4 34 -22 -3 -22 -28 0 -55 24 -55 50 0 22 25 50 45 50
7 0 22 -3 32 -7z m107 -9 c31 -30 9 -84 -34 -84 -24 0 -50 26 -50 50 0 24 26
50 50 50 10 0 26 -7 34 -16z m113 4 c7 -5 14 -5 18 2 10 16 42 12 49 -6 10
-25 7 -84 -4 -84 -5 0 -10 18 -10 41 0 33 -3 40 -17 37 -13 -2 -19 -14 -21
-41 -4 -50 -22 -47 -22 4 0 36 -2 40 -22 37 -19 -2 -24 -10 -26 -40 -5 -55
-22 -46 -22 10 0 48 0 49 33 49 17 0 37 -4 44 -9z m-327 -78 c0 -5 -4 -10 -10
-10 -5 0 -10 5 -10 10 0 6 5 10 10 10 6 0 10 -4 10 -10z"/>
<path d="M2150 500 c0 -5 5 -10 10 -10 6 0 10 5 10 10 0 6 -4 10 -10 10 -5 0
-10 -4 -10 -10z"/>
<path d="M536 418 c-28 -39 -21 -48 39 -48 59 0 67 9 45 51 -15 27 -64 25 -84
-3z"/>
<path d="M986 424 c-50 -50 -21 -144 44 -144 48 0 80 50 66 104 -13 53 -75 75
-110 40z"/>
<path d="M1616 408 c-32 -46 -8 -118 39 -118 28 0 55 34 55 70 0 36 -27 70
-55 70 -13 0 -31 -10 -39 -22z"/>
<path d="M8984 375 c-7 -18 3 -35 21 -35 18 0 26 15 19 34 -8 20 -33 21 -40 1z"/>
<path d="M9107 350 c-18 -29 -18 -30 2 -30 17 0 21 6 21 30 0 17 -1 30 -3 30
-1 0 -11 -13 -20 -30z"/>
<path d="M9222 374 c2 -11 11 -20 22 -22 13 -3 17 1 14 14 -2 11 -11 20 -22
22 -13 3 -17 -1 -14 -14z"/>
<path d="M9214 325 c-8 -21 10 -39 30 -32 22 9 20 24 -4 37 -16 9 -22 8 -26
-5z"/>
<path d="M9444 375 c-4 -9 -2 -21 4 -27 15 -15 44 -1 40 19 -4 23 -36 29 -44
8z"/>
<path d="M7505 340 c-4 -6 5 -10 19 -10 14 0 26 5 26 10 0 6 -9 10 -19 10 -11
0 -23 -4 -26 -10z"/>
<path d="M7784 336 c-10 -26 4 -48 28 -44 17 2 23 10 23 28 0 18 -6 26 -23 28
-13 2 -25 -3 -28 -12z"/>
<path d="M8144 336 c-10 -26 4 -48 28 -44 17 2 23 10 23 28 0 18 -6 26 -23 28
-13 2 -25 -3 -28 -12z"/>
<path d="M8614 336 c-10 -26 4 -48 28 -44 17 2 23 10 23 28 0 18 -6 26 -23 28
-13 2 -25 -3 -28 -12z"/>
</g>
</svg>
